<?xml version="1.0" encoding="UTF-8" standalone="no"?>
<!-- Created with Inkscape (http://www.inkscape.org/) -->

<svg
   xmlns:dc="http://purl.org/dc/elements/1.1/"
   xmlns:cc="http://creativecommons.org/ns#"
   xmlns:rdf="http://www.w3.org/1999/02/22-rdf-syntax-ns#"
   xmlns:svg="http://www.w3.org/2000/svg"
   xmlns="http://www.w3.org/2000/svg"
   xmlns:sodipodi="http://sodipodi.sourceforge.net/DTD/sodipodi-0.dtd"
   xmlns:inkscape="http://www.inkscape.org/namespaces/inkscape"
   width="64.042625"
   height="86.612839"
   viewBox="0 0 16.944611 22.916314"
   version="1.1"
   id="svg8"
   inkscape:version="0.92.1 r15371"
   sodipodi:docname="logo.svg">
  <defs
     id="defs2" />
  <sodipodi:namedview
     id="base"
     pagecolor="#ffffff"
     bordercolor="#666666"
     borderopacity="1.0"
     inkscape:pageopacity="0.0"
     inkscape:pageshadow="2"
     inkscape:zoom="5.6"
     inkscape:cx="45.872501"
     inkscape:cy="47.640519"
     inkscape:document-units="mm"
     inkscape:current-layer="layer1"
     showgrid="false"
     units="px"
     showguides="true"
     inkscape:window-width="1920"
     inkscape:window-height="1017"
     inkscape:window-x="1272"
     inkscape:window-y="-8"
     inkscape:window-maximized="1"
     fit-margin-top="0"
     fit-margin-left="0"
     fit-margin-right="0"
     fit-margin-bottom="0" />
  <metadata
     id="metadata5">
    <rdf:RDF>
      <cc:Work
         rdf:about="">
        <dc:format>image/svg+xml</dc:format>
        <dc:type
           rdf:resource="http://purl.org/dc/dcmitype/StillImage" />
        <dc:title></dc:title>
      </cc:Work>
    </rdf:RDF>
  </metadata>
  <g
     inkscape:label="Layer 1"
     inkscape:groupmode="layer"
     id="layer1"
     transform="translate(0.0021558,-280.36736)">
    <path
       style="fill:#333333;stroke:#000000;stroke-width:0;stroke-linecap:butt;stroke-linejoin:miter;stroke-miterlimit:4;stroke-dasharray:none;stroke-opacity:1"
       d="m 2.2815759,288.59639 c 0,0 0.9891946,1.32103 1.7038432,1.34339 0.7378504,0.0231 1.1191912,-0.55621 1.1191912,-0.55621 0,0 1.2120939,0.94134 1.4021809,1.32319 0.190087,0.38184 -1.2719634,12.61578 -1.2719634,12.61578 l -2.9012564,-0.0134 c 0,0 -1.89195791,-13.57829 -1.72243011,-13.98947 0.1695277,-0.41118 1.67043451,-0.72335 1.67043451,-0.72335 z"
       id="path4627-9"
       inkscape:connector-curvature="0"
       sodipodi:nodetypes="csczcczcc" />
    <path
       style="fill:#f9f9f9;stroke:#000000;stroke-width:0;stroke-linecap:butt;stroke-linejoin:miter;stroke-miterlimit:4;stroke-dasharray:none;stroke-opacity:1"
       d="m 3.2907066,289.63528 c 0.2493052,0.48512 0.321605,0.7009 0.3457152,0.8008 l 0.3560505,-0.12041 0.3875734,0.11295 0.3555338,-0.76724 c -0.6089764,0.37528 -0.9040913,0.36528 -1.4448729,-0.0261 z m 0.6976319,0.84396 -0.3415813,0.11775 -0.2542482,3.45312 0.8981366,0.7065 0.5431192,-0.58449 -0.4335653,-3.54103 z"
       id="path4629-1"
       inkscape:connector-curvature="0" />
    <path
       style="fill:#333333;stroke:#000000;stroke-width:0;stroke-linecap:butt;stroke-linejoin:miter;stroke-miterlimit:4;stroke-dasharray:none;stroke-opacity:1"
       d="m 11.202896,288.5029 c 0,0 0.989195,1.28126 1.703843,1.30294 0.737851,0.0224 1.837478,-1.23612 1.837478,-1.23612 0,0 1.714209,0.29782 1.904296,0.66817 0.190087,0.37035 -2.125216,14.10525 -2.125216,14.10525 l -2.925864,-0.0306 c 0,0 -1.6574622,-12.01121 -1.487934,-12.41001 0.169528,-0.3988 1.62794,-1.23038 1.62794,-1.23038 z"
       id="path4627-8"
       inkscape:connector-curvature="0"
       sodipodi:nodetypes="csczcczcc" />
    <path
       style="fill:#f9f9f9;stroke:#000000;stroke-width:0;stroke-linecap:butt;stroke-linejoin:miter;stroke-miterlimit:4;stroke-dasharray:none;stroke-opacity:1"
       d="m 12.212027,289.51051 c 0.249305,0.47052 0.321605,0.6798 0.345715,0.77669 l 0.356051,-0.11678 0.387573,0.10955 0.355534,-0.74414 c -0.608977,0.36398 -0.904092,0.35428 -1.444873,-0.0253 z m 0.697632,0.81855 -0.341581,0.11421 -0.254249,3.34915 0.898137,0.68523 0.543119,-0.56689 -0.433565,-3.43442 z"
       id="path4629-3"
       inkscape:connector-curvature="0" />
    <path
       style="fill:#b3b3b3;stroke:#002255;stroke-width:0;stroke-linecap:butt;stroke-linejoin:miter;stroke-miterlimit:4;stroke-dasharray:none;stroke-opacity:1"
       d="M 49.230469,1.1367188 C 38.982771,1.0999439 32.476301,6.4782614 34.460938,15.392578 c 0.324914,1.459423 0.934259,3.161145 1.714843,4.94336 2.525008,0.473103 7.465875,3.177647 9.039063,4.705078 0.976896,-1.011732 2.137663,-1.525178 3.3125,-1.53711 1.209028,-0.01228 2.429191,0.496129 3.464844,1.513672 1.144813,1.12475 1.267578,4.884766 1.267578,4.884766 0,0 -1.786917,0.759385 -3.435547,0.748047 -0.36269,-0.0028 -0.900624,-0.06926 -1.480469,-0.154297 0.431237,1.93899 0.402451,4.323585 0.375,5.816406 0.102215,0.0151 0.207155,0.04076 0.304688,0.04102 C 53.286363,36.36679 61.651665,24.606638 63.779297,14.640629 65.318971,7.4286824 59.819231,1.1707338 49.230469,1.1367188 Z M 15.119141,1.4609375 C 4.8714408,1.4242383 -1.6369801,6.8024788 0.34765625,15.716797 2.0008382,23.142359 10.649178,36.666396 14.912109,36.677734 c 0.115605,3.63e-4 0.239698,-0.02595 0.361329,-0.04297 0.129822,-1.555163 0.57596,-6.777 0.93164,-8.082032 0.0017,-0.0062 0.0061,-0.01136 0.0078,-0.01758 -0.680771,-0.311406 -1.35955,-0.549122 -1.884766,-0.552734 -1.513901,-0.01187 -4.3574219,2.058594 -4.3574219,2.058594 8e-7,0 0.00626,-3.478059 1.0429689,-4.595704 0.993977,-1.071434 2.193315,-1.60496 3.402344,-1.617187 1.209028,-0.01223 2.427238,0.498082 3.46289,1.515625 0.09191,0.0903 0.174743,0.202979 0.253906,0.324219 1.85721,-2.086729 6.855481,-4.598862 9.888672,-5.400391 0.698751,-1.774148 1.275413,-3.562644 1.646485,-5.300781 C 31.207652,7.7548576 25.707892,1.4949532 15.119141,1.4609375 Z M 60.984375,13.289062 c -3.038408,2.822401 -7.177603,3.463129 -10.193359,3.388672 0.525543,-2.056856 1.898398,-8.7223756 3.688616,-8.9536827 1.693733,-0.044402 4.909255,3.5310607 6.504743,5.5650107 z M 20.394252,9.3641183 c 2.128467,0.033214 4.378421,1.5360177 6.476842,4.2491627 -3.038406,2.822476 -7.175658,3.463129 -10.191406,3.388672 0.463013,-2.867602 0.901927,-7.0620059 3.714564,-7.6378347 z m 21.066686,1.1866627 c 0.746875,-0.01249 1.460147,0.03712 2.033203,0.111328 1.790218,0.231307 2.921608,3.820571 3.339843,6.1875 -3.015756,0.07408 -7.154956,-0.568225 -10.193359,-3.390625 0.02881,-2.263521 2.579664,-2.870725 4.820313,-2.908203 z M 7.3496094,10.875 c 0.7468828,-0.01249 1.4581943,0.03906 2.03125,0.113281 1.7902186,0.231307 2.9216116,3.818618 3.3398436,6.185547 C 9.7049496,17.248285 5.5677009,16.605641 2.5292969,13.783203 2.558111,11.519682 5.1089608,10.912472 7.3496094,10.875 Z M 32.1875,21.052734 c -1.655962,-0.0067 -3.206984,0.154998 -4.662109,0.441407 -3.110919,0.95845 -6.506771,2.709831 -8.953125,5.126953 -0.55647,0.730783 -1.027811,1.527827 -1.40625,2.388672 -0.815969,2.350299 -0.872824,5.405366 -1.013672,7.394531 0.06289,0.622004 0.154975,1.258175 0.283203,1.912109 1.763222,8.992063 10.984567,25.371474 15.53125,25.382813 4.546682,0.0161 13.469026,-14.224484 15.738281,-26.292969 0.08398,-0.446615 0.134703,-0.888415 0.179688,-1.328125 0.02872,-1.710009 0.0045,-3.915328 -0.591797,-5.746094 C 46.746666,28.680739 45.882009,27.16935 44.695312,25.871094 42.523698,23.76344 38.444674,22.004322 36.716797,21.539062 35.319386,21.238196 33.817198,21.059061 32.1875,21.052734 Z m -7.015625,11.97461 c 0.573807,-0.01284 1.120285,0.0389 1.560547,0.115234 1.375371,0.23811 2.245091,3.926897 2.566406,6.361328 -2.316912,0.07635 -5.495764,-0.581395 -7.830078,-3.484375 0.02214,-2.328123 1.981703,-2.953654 3.703125,-2.992187 z m 14.607422,0.949218 c 0.892141,0.04719 1.771406,0.502424 2.572265,1.888672 -2.48487,3.09018 -5.869587,3.792198 -8.335937,3.710938 0.429801,-2.252032 0.928499,-4.609675 2.392578,-4.863281 1.054479,-0.182793 2.224055,-0.796995 3.371094,-0.736329 z m -8.578404,19.541853 c 0.547123,-0.01655 0.714605,0.32322 1.609375,0.541015 1.535142,0.373644 3.396205,1.983539 3.396206,1.983539 0,0 -3.232805,-1.249797 -4.724052,-1.268695 -1.369383,-0.0144 -4.266742,0.908203 -4.266742,0.908203 0,0 0.951042,-1.025369 2.352401,-1.644531 0.840041,-0.370687 1.304538,-0.509599 1.632812,-0.519531 z"
       id="path4485"
       inkscape:connector-curvature="0"
       transform="matrix(0.26458333,0,0,0.26458333,0,280.06665)"
       sodipodi:nodetypes="ccccsccccccsccsccccccccccccccccccccccccccscccscccccscccccccccccccccccccccccc" />
    <path
       style="fill:#333333;stroke:#000000;stroke-width:0;stroke-linecap:butt;stroke-linejoin:miter;stroke-miterlimit:4;stroke-dasharray:none;stroke-opacity:1"
       d="m 6.7082277,295.75002 c 0,0 0.9891946,1.28126 1.7038431,1.30294 0.7378504,0.0224 1.8374782,-1.23612 1.8374782,-1.23612 0,0 1.714208,0.29782 1.904295,0.66817 0.190087,0.37035 -1.085782,6.78196 -1.085782,6.78196 l -4.827556,0.0167 c 0,0 -1.3722406,-6.43328 -1.2027128,-6.83208 0.1695277,-0.3988 1.6704345,-0.70157 1.6704345,-0.70157 z"
       id="path4627"
       inkscape:connector-curvature="0"
       sodipodi:nodetypes="csczcczc" />
    <path
       style="fill:#d40000;stroke:#000000;stroke-width:0;stroke-linecap:butt;stroke-linejoin:miter;stroke-miterlimit:4;stroke-dasharray:none;stroke-opacity:1"
       d="m 29.167969,63.083984 c 0.942256,1.778335 1.215515,2.569337 1.30664,2.935547 l 1.345703,-0.441406 1.464844,0.414063 1.34375,-2.8125 c -2.301643,1.375672 -3.417038,1.339005 -5.460937,-0.0957 z m 2.636719,3.09375 -1.291016,0.431641 -0.960938,12.658203 3.394532,2.589844 L 35,79.714844 33.361328,66.734375 Z"
       transform="matrix(0.26458333,0,0,0.26458333,0,280.06665)"
       id="path4629"
       inkscape:connector-curvature="0" />
  </g>
</svg>
